/* XPM */
static char *result[] = {
/* columns rows colors chars-per-pixel */
"64 64 183 2 ",
"   c #1E2F85",
".  c #1D3D90",
"X  c #203186",
"o  c #26378A",
"O  c #213B8E",
"+  c #2C3F90",
"@  c #233E91",
"#  c #1C4396",
"$  c #1C4D9D",
"%  c #19479A",
"&  c #244596",
"*  c #294494",
"=  c #264C9B",
"-  c #284B9B",
";  c #324291",
":  c #24519F",
">  c #2A519F",
",  c #0059AC",
"<  c #1355A6",
"1  c #1C55A4",
"2  c #1758A7",
"3  c #1E59A7",
"4  c #1257A8",
"5  c #135DAB",
"6  c #1B5BA9",
"7  c #2354A2",
"8  c #2955A2",
"9  c #2158A6",
"0  c #215CA9",
"q  c #3457A2",
"w  c #1062AF",
"e  c #1E62AE",
"r  c #0D64B3",
"t  c #0D6AB6",
"y  c #016FBE",
"u  c #0B6DBA",
"i  c #1263B1",
"p  c #1C65B1",
"a  c #1469B5",
"s  c #1A6BB5",
"d  c #136EB9",
"f  c #186FB9",
"g  c #0672BF",
"h  c #0B72BE",
"j  c #1673BD",
"k  c #1870BA",
"l  c #2A61AA",
"z  c #2464AE",
"x  c #3160AA",
"c  c #2B6AB2",
"v  c #3C6FB4",
"b  c #2B74BA",
"n  c #2C79BD",
"m  c #347ABC",
"M  c #3B79BB",
"N  c #47569F",
"B  c #4D599F",
"V  c #4E59A0",
"C  c #435CA4",
"Z  c #515CA2",
"A  c #4E6BAE",
"S  c #4D75B6",
"D  c #427BBB",
"F  c #4A7FBC",
"G  c #5E73B2",
"H  c #6476B4",
"J  c #757FB8",
"K  c #0975C1",
"L  c #0E7BC5",
"P  c #047EC9",
"I  c #067CC6",
"U  c #1677C0",
"Y  c #147CC4",
"T  c #227AC1",
"R  c #5482BD",
"E  c #0582CC",
"W  c #0E85CC",
"Q  c #0F89CF",
"!  c #1183CA",
"~  c #1B85CA",
"^  c #1288CE",
"/  c #038BD3",
"(  c #0E8CD2",
")  c #0391D7",
"_  c #0C91D6",
"`  c #0395DB",
"'  c #0A95DA",
"]  c #069ADE",
"[  c #089ADE",
"{  c #1093D6",
"}  c #159BDD",
"|  c #1994D6",
" . c #278FCE",
".. c #2D8ECE",
"X. c #2281C6",
"o. c #3B8DCB",
"O. c #3989C7",
"+. c #2B94D3",
"@. c #2198D8",
"#. c #2A95D3",
"$. c #3897D3",
"%. c #39A2DC",
"&. c #069EE1",
"*. c #089BE0",
"=. c #05A2E5",
"-. c #03A5E8",
";. c #02A9EB",
":. c #0FA1E3",
">. c #1BAAE8",
",. c #18B1EE",
"<. c #17B3F1",
"1. c #1BB4F1",
"2. c #2BAAE6",
"3. c #30A5E1",
"4. c #3BADE6",
"5. c #38B6ED",
"6. c #36BAF2",
"7. c #4787C4",
"8. c #558FC6",
"9. c #5B88C4",
"0. c #4691CB",
"q. c #4C98CF",
"w. c #4E96CE",
"e. c #5395CD",
"r. c #5D94CC",
"t. c #5A9BCE",
"y. c #4E96D1",
"u. c #549ED6",
"i. c #728EC5",
"p. c #6090C9",
"a. c #619DCF",
"s. c #699FCF",
"d. c #739FCE",
"f. c #7395CB",
"g. c #42A4DC",
"h. c #4AA0D8",
"j. c #61A8D8",
"k. c #68A8D7",
"l. c #77A7D2",
"z. c #7DABD4",
"x. c #72ADDB",
"c. c #75A9D5",
"v. c #79B7DF",
"b. c #45ADE1",
"n. c #5AAFE2",
"m. c #55B3E5",
"M. c #45BFF3",
"N. c #65BEED",
"B. c #67B1E2",
"V. c #7EBBE1",
"C. c #44C0F4",
"Z. c #5FC3F2",
"A. c #89ABD3",
"S. c #8FB3D7",
"D. c #85B9DF",
"F. c #89B8DC",
"G. c #98B7DA",
"H. c #A6BEDC",
"J. c #A5C0DD",
"K. c #B3C5DE",
"L. c #9CC5E3",
"P. c #9ECCE7",
"I. c #A4C7E3",
"U. c #A9C6E1",
"Y. c #AACBE6",
"T. c #B2CAE3",
"R. c #A5D4ED",
"E. c #AAD5ED",
"W. c #BAD1E7",
"Q. c #BBD2E8",
"!. c #BEDDEF",
"~. c #B3D7ED",
"^. c #BFDDF0",
"/. c #C0DDEF",
"(. c #C7E1F1",
"). c #C8E2F1",
"_. c #DBEBF5",
"`. c #E0EEF7",
"'. c #E9F0F7",
"]. c #E9F3FA",
"[. c #F2F6FB",
"{. c #FFFFFF",
"}. c None",
/* pixels */
"}.}.}.}.}.}.}.}.}.}.}.}.}.}.}.}.}.}.}.}.}.}.}.}.}.}.}.}.}.}.}.}.}.}.}.}.}.}.}.}.}.}.}.}.}.}.}.}.}.}.}.}.}.}.}.}.}.}.}.}.}.}.}.}.",
"}.}.}.}.}.}.}.}.}.}.}.}.}.}.}.}.}.}.}.}.}.}.}.}.}.}.}.}.}.}.}.}.}.}.}.}.}.}.}.}.}.}.}.}.}.}.}.}.}.}.}.}.}.}.}.}.}.}.}.}.}.}.}.}.",
"}.}.}.}.}.}.}.}.}.}.}.}.}.}.}.}.}.}.}.}.}.}.}.}.}.}.}.}.}.}.}.}.}.}.}.}.}.}.}.}.}.}.}.}.}.}.}.}.}.}.}.}.}.}.}.}.}.}.}.}.}.}.}.}.",
"}.}.}.}.}.}.}.}.}.}.}.}.}.}.}.}.}.}.}.}.}.}.}.}.}.}.}.}.}.}.}.}.}.}.}.}.}.}.}.}.}.}.}.}.}.}.}.}.}.}.}.}.}.}.}.}.}.}.}.}.}.}.}.}.",
"}.}.}.}.}.}.}.}.}.}.}.}.}.}.}.}.}.}.}.}.}.}.}.}.}.}.}.}.}.}.}.}.}.}.}.}.}.}.}.}.}.}.}.}.}.}.}.}.}.}.}.}.}.}.}.}.}.}.}.}.}.}.}.}.",
"}.}.}.}.}.}.}.}.}.}.}.}.}.}.}.}.}.}.}.}.}.}.}.}.}.}.}.}.}.}.}.}.}.}.}.}.}.}.}.}.}.}.}.}.}.}.}.}.}.}.}.}.}.}.}.}.}.}.}.}.}.}.}.}.",
"}.}.}.}.}.}.}.}.}.}.}.}.}.}.}.}.}.}.}.}.}.}.}.}.}.}.}.}.}.}.}.O.o.x.}.}.}.}.}.}.}.}.}.}.}.}.}.}.}.}.}.}.}.}.}.}.}.}.}.}.}.}.}.}.",
"}.}.}.}.}.}.}.}.}.}.}.}.}.}.}.}.}.}.}.}.}.}.}.}.}.}.}.}.}.n t j j u X.}.}.}.}.}.}.}.}.}.}.}.}.}.}.}.}.}.}.}.}.}.}.}.}.}.}.}.}.}.",
"}.}.}.}.}.}.}.}.}.}.}.}.}.}.}.}.}.}.}.}.}.}.}.}.}.}.}.7.r a k k U U L K $.}.}.}.}.}.}.}.}.}.}.}.}.}.}.}.}.}.}.}.}.}.}.}.}.}.}.}.",
"}.}.}.}.}.}.}.}.}.}.}.}.}.}.}.}.}.}.}.}.}.}.}.}.}.p.p i s f k j j U U Y L L u.}.}.}.}.}.}.}.}.}.}.}.}.}.}.}.}.}.}.}.}.}.}.}.}.}.",
"}.}.}.}.}.}.}.}.}.}.}.}.}.}.}.}.}.}.}.}.}.}.}.}.z 5 p s s s k k j U U Y ! ! I ^ B.}.}.}.}.}.}.}.}.}.}.}.}.}.}.}.}.}.}.}.}.}.}.}.",
"}.}.}.}.}.}.}.}.}.}.}.}.}.}.}.}.}.}.}.}.}.}.v 6 6 e p p s s k j j U Y Y Y ! ! W / #.}.}.}.}.}.}.}.}.}.}.}.}.}.}.}.}.}.}.}.}.}.}.",
"}.}.}.}.}.}.}.}.}.}.}.}.}.}.}.}.}.}.}.}.S 1 1 6 e e p s s f k k U U Y Y ! ! ! W Q ( / 3.}.}.}.}.}.}.}.}.}.}.}.}.}.}.}.}.}.}.}.}.",
"}.}.}.}.}.}.}.}.}.}.}.}.}.}.}.}.}.}.i.8 $ 9 0 z e e p s p f k j j U U Y Y ! W ^ Q ( _ / ' m.}.}.}.}.}.}.}.}.}.}.}.}.}.}.}.}.}.}.",
"}.}.}.}.}.}.}.}.}.}.}.}.}.}.}.}.}.q % 7 9 9 9 0 e e p p s f k j j U U Y Y Y ! ^ Q ( ( _ _ ` } N.}.}.}.}.}.}.}.}.}.}.}.}.}.}.}.}.",
"}.}.}.}.}.}.}.}.}.}.}.}.}.}.}.A # = = 7 7 9 0 0 e e p s p f k k U U Y Y ! ! ! ^ Q ( ( _ ' ' ] *.2.}.}.}.}.}.}.}.}.}.}.}.}.}.}.}.",
"}.}.}.}.}.}.}.}.}.}.}.}.}.G & # - = : 7 7 9 0 0 e e p s s s k j U U Y Y Y W ! ^ Q ( _ _ ' ' [ [ &.&.5.}.}.}.}.}.}.}.}.}.}.}.}.}.",
"}.}.}.}.}.}.}.}.}.}.}.}.* O * - - : : 7 7 1 2 0 e e p p s f k k U U U Y Y Y ! Q ( ( ( _ ' ' [ &.&.&.&.-.Z.}.}.}.}.}.}.}.}.}.}.}.",
"}.}.}.}.}.}.}.}.}.}.N o + * * - - : : 7 1 S R 2 e p p s s s k j j U Y Y ! ! Y Q Q ( ( _ ' ' [ [ ] =.-.-.;.,.}.}.}.}.}.}.}.}.}.}.",
"}.}.}.}.}.}.}.}.}.J   + * * * - = = : 7 7 l K.R 4 e p p s s k j j U Y Y Y Y W ^ Q ( ( _ ' ' [ [ =.&.=.-.;.;.C.}.}.}.}.}.}.}.}.}.",
"}.}.}.}.}.}.}.}.}.Z o + * * - & - - : 7 7 1 l J.R 5 p s p f k j U U U Y ! Y Q Q Q ( _ _ ' ' [ [ ] =.=.-.;.;.1.}.}.}.}.}.}.}.}.}.",
"}.}.}.}.}.}.}.}.}.B o + * * & * = - : 7 7 9 1 c T.D 5 p s f k k j U Y Y Y ! ! Q Q ( ( _ ' ' [ [ [ =.=.-.;.;.<.C.}.}.}.}.}.}.}.}.",
"}.}.}.}.}.}.}.}.}.V o + * * - - = 7 : 7 7 9 0 2 l J.M i s s k j U U U Y Y ! ! Q ( ( { ( ' ' [ [ =.=.=.=.-.;.1.C.}.}.}.}.}.}.}.}.",
"}.}.}.}.}.}.}.}.}.B o + + * * - = - : 7 7 9 0 6 D D Y.m a s k j U U Y Y Y ! ! ^ Q ( ( _ ' ' [ &.[ =.=.=.;.;.<.C.}.}.}.}.}.}.}.}.",
"}.}.}.}.}.}.}.}.}.V o + + * * - = 7 : 7 7 9 0 < S.G.c U.b a k k j U U Y Y ! ! ^ ( ( ( _ ' ' [ [ [ =.=.-.;.;.<.C.}.}.}.}.}.}.}.}.",
"}.}.}.}.}.}.}.}.}.V o + + * * - = = = 7 7 9 0 < A.{.S.M Y.n d k U U K x._._.P.P Q ( _ _ ' ' [ &.=.=.-.-.;.;.<.C.}.}.}.}.}.}.}.}.",
"}.}.}.}.}.}.}.}.}.B o + * * & - = > 7 7 9 9 0 < A.{.{.z.m I.k u U U K D.{.{./.E Q ( ( _ ' ' [ ] [ =.=.-.;.;.<.C.}.}.}.}.}.}.}.}.",
"}.}.}.}.}.}.}.}.}.Z o + * * & - - - > 7 7 9 9 < A.{.{.{.l.7.U.n f U K F.{.{.^.E Q Q _ _ ' ' ' [ [ =.=.-.;.;.<.C.}.}.}.}.}.}.}.}.",
"}.}.}.}.}.}.}.}.}.V o + + * * - - 8 7 7 7 9 0 < A.{.{.{.{.s.O.I.j U g D.{.{.!.E Q _ ( _ ' ' [ [ =.=.=.=.;.;.<.C.}.}.}.}.}.}.}.}.",
"}.}.}.}.}.}.}.}.}.V o * * * * - - - = 7 7 9 0 < A.{.{.{.{.{.a.e.L.j y D.{.{.^.P Q Q _ _ ' ' [ [ [ =.=.-.;.;.<.C.}.}.}.}.}.}.}.}.",
"}.}.}.}.}.}.}.}.}.V o + * * * - > = 7 7 7 9 0 < A.{.{.{.{.{.{.t.0.L.y D.{.{.!.E ^ _ _ _ ' ' [ [ &.=.=.-.-.;.<.C.}.}.}.}.}.}.}.}.",
"}.}.}.}.}.}.}.}.}.V o + + * * - = : : 7 7 0 0 < A.{.{.'.[.{.{.[.w.j.D.D.{.{.!.E Q Q Q ' ' ' [ [ &.:.=.-.;.;.<.C.}.}.}.}.}.}.}.}.",
"}.}.}.}.}.}.}.}.}.B o + & * * = - : : 7 7 9 0 < A.{.{.T.e.{.{.{.[.0.q._.{.{.!.E ( ( _ _ ' ' [ [ =.=.=.=.;.;.<.C.}.}.}.}.}.}.}.}.",
"}.}.}.}.}.}.}.}.}.B o + * * * = - : : : 9 9 0 < A.{.{.W., z.{.{.{.[.o.x.{.{.!.E Q Q ( _ ' ` [ [ [ =.=.=.;.;.<.C.}.}.}.}.}.}.}.}.",
"}.}.}.}.}.}.}.}.}.V o + + * * = - : : : 7 9 0 < A.{.{.W.w r c.{.{.{.[...j.{.!.P Q ( ( _ ' ' [ &.=.=.=.-.;.;.<.C.}.}.}.}.}.}.}.}.",
"}.}.}.}.}.}.}.}.}.V o + * * * = - - : : 9 9 3 < A.{.{.W.w s r F.{.{.{.]...v.).E Q Q _ _ ' ' ' [ [ =.=.-.;.;.,.C.}.}.}.}.}.}.}.}.",
"}.}.}.}.}.}.}.}.}.V o + + * * * = = : 7 9 9 0 < A.{.{.W.i s f u D.{.{.{.'...$.^ ( _ ( _ ' ' [ [ =.=.=.-.;.;.<.C.}.}.}.}.}.}.}.}.",
"}.}.}.}.}.}.}.}.}.V o + + * - - = : : 7 7 9 9 < A.{.{.W.r s f k u L.{.{.{.`...E Q Q _ _ ' ' [ &.:.[ =.=.;.;.<.C.}.}.}.}.}.}.}.}.",
"}.}.}.}.}.}.}.}.}.B o + * * - & = = : 7 9 9 9 < A.{.{.W.w s f j j h L.{.{.{._. .Q ( ( _ ' ' [ [ ] =.=.=.;.;.<.C.}.}.}.}.}.}.}.}.",
"}.}.}.}.}.}.}.}.}.Z o + * * * - = - : 7 7 9 0 < A.{.{.W.r f k k j L K Y.{.{._.R.+.E _ ' ' ' [ [ =.=.=.=.;.;.<.C.}.}.}.}.}.}.}.}.",
"}.}.}.}.}.}.}.}.}.Z o + + * * - = : : 7 7 9 0 < A.{.{.Q.i s k j j U U Y ~.{.~.+.E.| / ' ' ' ' [ &.=.=.;.;.;.<.C.}.}.}.}.}.}.}.}.",
"}.}.}.}.}.}.}.}.}.V o + * * * - = = : : 7 9 0 2 D d.d.8.s f f j j U U L L ^.).P $.E.@.( ' ' [ [ &.=.=.=.;.;.<.M.}.}.}.}.}.}.}.}.",
"}.}.}.}.}.}.}.}.}.V o + * * * - = = 7 7 9 9 0 0 2 5 5 i s f f j U U Y Y L ~ V.W E %.E.' ` ' [ [ &.=.=.-.;.;.<.C.}.}.}.}.}.}.}.}.",
"}.}.}.}.}.}.}.}.}.Z o + + * * - = : 7 7 7 9 0 0 e p p p s s f k j U U Y Y L W ! Q / g.E.} ` [ [ &.&.=.=.;.;.1.}.}.}.}.}.}.}.}.}.",
"}.}.}.}.}.}.}.}.}.H X * * * * * = : = 7 7 9 0 0 e e p s s f f j U U Y Y ! Y W Q ^ ( / g.R.[ ] ] &.&.=.=.;.;.6.}.}.}.}.}.}.}.}.}.",
"}.}.}.}.}.}.}.}.}.}.; X + * - - = = : 7 9 9 0 0 e e p p s s k j U U U Y Y ! ! ^ Q ( ( / m.b.] [ &.=.=.=.;.;.}.}.}.}.}.}.}.}.}.}.",
"}.}.}.}.}.}.}.}.}.}.}.H O @ - - = = : 7 7 9 0 0 e e p p s s f k j U U Y ! ! ! ^ ( ( _ ' ` ' [ ] &.-.=.-.6.}.}.}.}.}.}.}.}.}.}.}.",
"}.}.}.}.}.}.}.}.}.}.}.}.}.C . & = : : 7 7 9 3 z e e p s s s f j j U Y Y Y ! ! ^ Q ( ( _ ' ' [ [ &.&.>.}.}.}.}.}.}.}.}.}.}.}.}.}.",
"}.}.}.}.}.}.}.}.}.}.}.}.}.}.}.q % = 7 7 7 9 0 0 e p p s s s k j U U U ! Y ! ! W ( ( ( _ ' ' ] ] *.N.}.}.}.}.}.}.}.}.}.}.}.}.}.}.",
"}.}.}.}.}.}.}.}.}.}.}.}.}.}.}.}.H = $ 7 7 9 0 6 6 z p p s f k j j U U Y Y ! ! Q ( ( _ _ ' ` ` 4.}.}.}.}.}.}.}.}.}.}.}.}.}.}.}.}.",
"}.}.}.}.}.}.}.}.}.}.}.}.}.}.}.}.}.}.S 1 1 9 6 z e e p s s s f j U U U Y ! ! ! ! ^ ( ( _ ) 3.}.}.}.}.}.}.}.}.}.}.}.}.}.}.}.}.}.}.",
"}.}.}.}.}.}.}.}.}.}.}.}.}.}.}.}.}.}.}.}.q 1 9 0 6 p p p s s f k U U Y Y Y Y ! Q Q ( / { }.}.}.}.}.}.}.}.}.}.}.}.}.}.}.}.}.}.}.}.",
"}.}.}.}.}.}.}.}.}.}.}.}.}.}.}.}.}.}.}.}.}.f.l 2 z e p p s f f j j U U Y ! ! ! Q E ( n.}.}.}.}.}.}.}.}.}.}.}.}.}.}.}.}.}.}.}.}.}.",
"}.}.}.}.}.}.}.}.}.}.}.}.}.}.}.}.}.}.}.}.}.}.}.9.6 5 p s s s f j j U U ! Y ! L E g.}.}.}.}.}.}.}.}.}.}.}.}.}.}.}.}.}.}.}.}.}.}.}.",
"}.}.}.}.}.}.}.}.}.}.}.}.}.}.}.}.}.}.}.}.}.}.}.}.}.D w p s f f k U U U Y Y I +.}.}.}.}.}.}.}.}.}.}.}.}.}.}.}.}.}.}.}.}.}.}.}.}.}.",
"}.}.}.}.}.}.}.}.}.}.}.}.}.}.}.}.}.}.}.}.}.}.}.}.}.}.}.b r s f j j U U L ~ }.}.}.}.}.}.}.}.}.}.}.}.}.}.}.}.}.}.}.}.}.}.}.}.}.}.}.",
"}.}.}.}.}.}.}.}.}.}.}.}.}.}.}.}.}.}.}.}.}.}.}.}.}.}.}.}.p.f t j j h U u.}.}.}.}.}.}.}.}.}.}.}.}.}.}.}.}.}.}.}.}.}.}.}.}.}.}.}.}.",
"}.}.}.}.}.}.}.}.}.}.}.}.}.}.}.}.}.}.}.}.}.}.}.}.}.}.}.}.}.}.e.T T y.}.}.}.}.}.}.}.}.}.}.}.}.}.}.}.}.}.}.}.}.}.}.}.}.}.}.}.}.}.}.",
"}.}.}.}.}.}.}.}.}.}.}.}.}.}.}.}.}.}.}.}.}.}.}.}.}.}.}.}.}.}.}.}.}.}.}.}.}.}.}.}.}.}.}.}.}.}.}.}.}.}.}.}.}.}.}.}.}.}.}.}.}.}.}.}.",
"}.}.}.}.}.}.}.}.}.}.}.}.}.}.}.}.}.}.}.}.}.}.}.}.}.}.}.}.}.}.}.}.}.}.}.}.}.}.}.}.}.}.}.}.}.}.}.}.}.}.}.}.}.}.}.}.}.}.}.}.}.}.}.}.",
"}.}.}.}.}.}.}.}.}.}.}.}.}.}.}.}.}.}.}.}.}.}.}.}.}.}.}.}.}.}.}.}.}.}.}.}.}.}.}.}.}.}.}.}.}.}.}.}.}.}.}.}.}.}.}.}.}.}.}.}.}.}.}.}.",
"}.}.}.}.}.}.}.}.}.}.}.}.}.}.}.}.}.}.}.}.}.}.}.}.}.}.}.}.}.}.}.}.}.}.}.}.}.}.}.}.}.}.}.}.}.}.}.}.}.}.}.}.}.}.}.}.}.}.}.}.}.}.}.}.",
"}.}.}.}.}.}.}.}.}.}.}.}.}.}.}.}.}.}.}.}.}.}.}.}.}.}.}.}.}.}.}.}.}.}.}.}.}.}.}.}.}.}.}.}.}.}.}.}.}.}.}.}.}.}.}.}.}.}.}.}.}.}.}.}.",
"}.}.}.}.}.}.}.}.}.}.}.}.}.}.}.}.}.}.}.}.}.}.}.}.}.}.}.}.}.}.}.}.}.}.}.}.}.}.}.}.}.}.}.}.}.}.}.}.}.}.}.}.}.}.}.}.}.}.}.}.}.}.}.}."
};
