/* XPM */
static char *result[] = {
/* columns rows colors chars-per-pixel */
"32 32 220 2 ",
"   c #1D3F92",
".  c #26388B",
"X  c #203A8D",
"o  c #223B8F",
"O  c #27398C",
"+  c #283A8C",
"@  c #293A8D",
"#  c #293B8D",
"$  c #19499A",
"%  c #19499B",
"&  c #204193",
"*  c #294293",
"=  c #2F4191",
"-  c #274897",
";  c #274798",
":  c #204899",
">  c #224A9A",
",  c #274898",
"<  c #264C9C",
"1  c #264D9C",
"2  c #274E9C",
"3  c #284E9D",
"4  c #22509F",
"5  c #095FAE",
"6  c #1655A5",
"7  c #1756A5",
"8  c #1D53A2",
"9  c #1F55A3",
"0  c #1857A7",
"q  c #1957A7",
"w  c #1958A7",
"e  c #1B59A7",
"r  c #145AAA",
"t  c #165CAA",
"y  c #175CAB",
"u  c #115FAE",
"i  c #1B59A8",
"p  c #1D5BA8",
"a  c #2452A0",
"s  c #2552A0",
"d  c #2056A3",
"f  c #2156A4",
"g  c #2257A4",
"h  c #205CA9",
"j  c #2B5EA8",
"k  c #3458A3",
"l  c #1361AF",
"z  c #1461AF",
"x  c #1B60AC",
"c  c #1D61AD",
"v  c #1E61AD",
"b  c #0E65B2",
"n  c #0868B6",
"m  c #046BBB",
"M  c #0F6CB8",
"N  c #0A6FBC",
"B  c #1663B0",
"V  c #1065B3",
"C  c #1166B3",
"Z  c #1C66B2",
"A  c #1669B4",
"S  c #176AB5",
"D  c #186BB5",
"F  c #1A6CB6",
"G  c #126EB9",
"H  c #136FB9",
"J  c #156FBA",
"K  c #1770BA",
"L  c #1771BA",
"P  c #1173BE",
"I  c #1274BE",
"U  c #1475BE",
"Y  c #1676BF",
"T  c #3464AB",
"R  c #3A7ABD",
"E  c #4E59A0",
"W  c #4F5BA1",
"Q  c #505AA0",
"!  c #505BA1",
"~  c #525CA2",
"^  c #4264AA",
"/  c #4D63A8",
"(  c #4F7EBA",
")  c #5D71B1",
"_  c #0875C1",
"`  c #0975C1",
"'  c #0A76C1",
"]  c #0579C5",
"[  c #0A7CC6",
"{  c #0C7DC7",
"}  c #1179C3",
"|  c #117AC3",
" . c #147BC4",
".. c #107FC8",
"X. c #267FC4",
"o. c #297BC0",
"O. c #5381BF",
"+. c #5785BE",
"@. c #0681CA",
"#. c #0084CE",
"$. c #0184CE",
"%. c #0284CE",
"&. c #0486CF",
"*. c #0586CF",
"=. c #0B83CB",
"-. c #0D83CB",
";. c #0C84CB",
":. c #0F85CB",
">. c #0888CF",
",. c #0988CF",
"<. c #1280C8",
"1. c #1782C9",
"2. c #1085CB",
"3. c #1085CC",
"4. c #1C8BCD",
"5. c #0888D0",
"6. c #0E8AD0",
"7. c #0F8BD0",
"8. c #088ED4",
"9. c #098ED5",
"0. c #098FD5",
"q. c #0A8FD5",
"w. c #0B8FD5",
"e. c #0C90D5",
"r. c #0090D8",
"t. c #0091D8",
"y. c #0693D9",
"u. c #0995D9",
"i. c #0A95D9",
"p. c #0A95DA",
"a. c #0298DD",
"s. c #0398DD",
"d. c #0599DE",
"f. c #0699DE",
"g. c #089ADE",
"h. c #1393D6",
"j. c #1493D7",
"k. c #1B90D3",
"l. c #1198DB",
"z. c #2E84C5",
"x. c #2C88C9",
"c. c #2E8ECF",
"v. c #3482C3",
"b. c #3085C6",
"n. c #3C87C5",
"m. c #2590D0",
"M. c #2399D8",
"N. c #3397D3",
"B. c #3B94D2",
"V. c #009BE1",
"C. c #009CE1",
"Z. c #069FE2",
"A. c #159EE0",
"S. c #00A1E5",
"D. c #04A4E6",
"F. c #05A4E6",
"G. c #00A8EB",
"H. c #00A9EB",
"J. c #07AAEB",
"K. c #1EB5F0",
"L. c #23A4E2",
"P. c #2AAFEA",
"I. c #3EB5EC",
"U. c #22B6F0",
"Y. c #22B6F1",
"T. c #23B6F1",
"R. c #4385C2",
"E. c #4A85C3",
"W. c #4C87C2",
"Q. c #5588C1",
"!. c #5A8BC2",
"~. c #4797CF",
"^. c #539DD2",
"/. c #5B9ED1",
"(. c #638DC6",
"). c #718FC6",
"_. c #699ECD",
"`. c #42A2DB",
"'. c #53A9DF",
"]. c #56ACDD",
"[. c #67A0D0",
"{. c #78A3D0",
"}. c #7CAAD4",
"|. c #71AED9",
" X c #66B1DE",
".X c #68B2DE",
"XX c #6BB4DF",
"oX c #74B4DE",
"OX c #78B1DB",
"+X c #49B0E2",
"@X c #59B3E6",
"#X c #61B6E2",
"$X c #85B4DA",
"%X c #8EBBDF",
"&X c #9AB8DA",
"*X c #83C0E4",
"=X c #90C2E3",
"-X c #98C5E4",
";X c #9CCCE9",
":X c #A6C3E1",
">X c #AAC3E0",
",X c #ADD1EB",
"<X c #B9D8ED",
"1X c #BADAEE",
"2X c #C3DCEF",
"3X c #C8D8EB",
"4X c #CAD9EB",
"5X c #CFDDED",
"6X c #D0DDED",
"7X c #D3DFEE",
"8X c #CEE1F1",
"9X c #D7E2F0",
"0X c #D4E4F2",
"qX c #DAE7F3",
"wX c #E1EBF5",
"eX c #E1ECF5",
"rX c #E9F2F8",
"tX c #FBFDFE",
"yX c white",
"uX c None",
/* pixels */
"uXuXuXuXuXuXuXuXuXuXuXuXuXuXuXuXuXuXuXuXuXuXuXuXuXuXuXuXuXuXuXuX",
"uXuXuXuXuXuXuXuXuXuXuXuXuXuXuXuXuXuXuXuXuXuXuXuXuXuXuXuXuXuXuXuX",
"uXuXuXuXuXuXuXuXuXuXuXuXuXuXuXuXuXuXuXuXuXuXuXuXuXuXuXuXuXuXuXuX",
"uXuXuXuXuXuXuXuXuXuXuXuXuXuXuXv.b.uXuXuXuXuXuXuXuXuXuXuXuXuXuXuX",
"uXuXuXuXuXuXuXuXuXuXuXuXuXE.V G P ' B.uXuXuXuXuXuXuXuXuXuXuXuXuX",
"uXuXuXuXuXuXuXuXuXuXuX(.x z F L Y  .[ ;.'.uXuXuXuXuXuXuXuXuXuXuX",
"uXuXuXuXuXuXuXuXuXuXj 6 c Z F L Y  .<.:.&.j.uXuXuXuXuXuXuXuXuXuX",
"uXuXuXuXuXuXuXuX^ $ 9 h v Z F L Y  .<.2.6.0.r.L.uXuXuXuXuXuXuXuX",
"uXuXuXuXuXuX) & : a g e v Z F L Y  .<.3.6.e.i.a.C.I.uXuXuXuXuXuX",
"uXuXuXuXuX= X ; 1 4 T +.y Z F L Y  .<.2.6.e.i.g.Z.S.J.uXuXuXuXuX",
"uXuXuXuX~ . * - 1 a 8 ( Q.l F L Y  .<.2.6.e.i.g.Z.F.G.Y.uXuXuXuX",
"uXuXuXuXQ # * , 1 a g w !.W.C L Y } ] =.7.e.i.g.Z.D.H.Y.uXuXuXuX",
"uXuXuXuX! @ * - < a f p >X{.R.M I x.oXN.,.e.i.g.Z.D.H.T.uXuXuXuX",
"uXuXuXuX! @ * - 2 s f 0 7XwX_.n.m ^.yXXX#.e.i.g.Z.D.H.T.uXuXuXuX",
"uXuXuXuX! @ * - 3 a f q 3XyX0X[.z.~.yX X$.e.i.g.Z.D.H.T.uXuXuXuX",
"uXuXuXuX! @ * , 1 a f 0 4XtXyX8X/.|.yX X$.e.p.g.Z.D.H.T.uXuXuXuX",
"uXuXuXuX! @ * , 1 a f q 5XqX}.yX2XOXyX.X$.e.i.g.Z.D.H.Y.uXuXuXuX",
"uXuXuXuX! # * , < a f q 6XwX5 $XyX<X=X.X%.e.i.g.Z.D.H.U.uXuXuXuX",
"uXuXuXuX! @ * , 1 a f q 6XeXA n %XyX1X4.>.e.i.g.Z.D.H.Y.uXuXuXuX",
"uXuXuXuX! # * , 1 a f q 9XrXS J N -XyX;X6.8.i.g.Z.D.H.Y.uXuXuXuX",
"uXuXuXuXW # * , 1 a f i &X:XD K U ` ,X*X].h.y.g.Z.D.H.Y.uXuXuXuX",
"uXuXuXuXE O * , 1 a g h r u F L Y | 1.m.k.#Xl.f.Z.D.H.K.uXuXuXuX",
"uXuXuXuXuX+ o , 1 a g h v Z F L Y  ...-.5.M.+Xs.Z.S.G.uXuXuXuXuX",
"uXuXuXuXuXuX/   > a g h v Z F L Y  .<.2.6.9.u.d.V.P.uXuXuXuXuXuX",
"uXuXuXuXuXuXuXuXk % d h v Z F L Y  .<.3.6.w.t.A.uXuXuXuXuXuXuXuX",
"uXuXuXuXuXuXuXuXuX).g 7 v Z F L Y  .<.3.*.q.@XuXuXuXuXuXuXuXuXuX",
"uXuXuXuXuXuXuXuXuXuXuXO.t B F L Y  .{ @.`.uXuXuXuXuXuXuXuXuXuXuX",
"uXuXuXuXuXuXuXuXuXuXuXuXuXR b H I _ c.uXuXuXuXuXuXuXuXuXuXuXuXuX",
"uXuXuXuXuXuXuXuXuXuXuXuXuXuXuXo.X.uXuXuXuXuXuXuXuXuXuXuXuXuXuXuX",
"uXuXuXuXuXuXuXuXuXuXuXuXuXuXuXuXuXuXuXuXuXuXuXuXuXuXuXuXuXuXuXuX",
"uXuXuXuXuXuXuXuXuXuXuXuXuXuXuXuXuXuXuXuXuXuXuXuXuXuXuXuXuXuXuXuX",
"uXuXuXuXuXuXuXuXuXuXuXuXuXuXuXuXuXuXuXuXuXuXuXuXuXuXuXuXuXuXuXuX"
};
