/* XPM */
static char *result[] = {
/* columns rows colors chars-per-pixel */
"16 16 95 2 ",
"   c #194698",
".  c #1B4799",
"X  c #244092",
"o  c #254193",
"O  c #274394",
"+  c #234E9D",
"@  c #244E9D",
"#  c #244F9E",
"$  c #2D4998",
"%  c #314090",
"&  c #324191",
"*  c #384694",
"=  c #324D9A",
"-  c #1C55A4",
";  c #1D56A5",
":  c #145EAC",
">  c #155FAD",
",  c #165FAD",
"<  c #2058A6",
"1  c #225BA7",
"2  c #235BA8",
"3  c #265EA9",
"4  c #275EA9",
"5  c #1D64AF",
"6  c #1169B6",
"7  c #126AB6",
"8  c #136BB7",
"9  c #186EB8",
"0  c #196EB8",
"q  c #0D74BF",
"w  c #0E75BF",
"e  c #1B70B9",
"r  c #3064AC",
"t  c #3165AD",
"y  c #3F7BBB",
"u  c #427DBE",
"i  c #077EC8",
"p  c #097FC8",
"a  c #0A7FC8",
"s  c #1176C0",
"d  c #1377C0",
"f  c #1478C1",
"g  c #1578C1",
"h  c #6381BD",
"j  c #0A80C8",
"k  c #1183CA",
"l  c #0187D0",
"z  c #0388D1",
"x  c #0589D1",
"c  c #058AD1",
"v  c #088AD1",
"b  c #0A8CD2",
"n  c #0C8DD3",
"m  c #0D8DD3",
"M  c #0094DA",
"N  c #0797DB",
"B  c #0998DC",
"V  c #0D9ADC",
"C  c #0F9ADC",
"Z  c #1691D4",
"A  c #2F86C7",
"S  c #3B84C3",
"D  c #3895D3",
"F  c #3F99D5",
"G  c #36A0D9",
"H  c #00A0E4",
"J  c #01A0E4",
"K  c #03A1E4",
"L  c #04A1E4",
"P  c #0AA2E5",
"I  c #06ADED",
"U  c #08ADED",
"Y  c #0EAFED",
"T  c #0EAFEE",
"R  c #11A5E6",
"E  c #4B83C2",
"W  c #568BC4",
"Q  c #6B88C1",
"!  c #5EAADA",
"~  c #65A4D4",
"^  c #4AB0E6",
"/  c #54B4E7",
"(  c #85C0E4",
")  c #8BC2E4",
"_  c #99C2E3",
"`  c #9EC0E0",
"'  c #AEC7E1",
"]  c #AAD3EC",
"[  c #BED3E9",
"{  c #B9DBF0",
"}  c #CEDDEE",
"|  c #CCDFF0",
" . c #D9EAF5",
".. c #E8EFF7",
"X. c None",
/* pixels */
"X.X.X.X.X.X.X.X.X.X.X.X.X.X.X.X.",
"X.X.X.X.X.X.X.X.X.X.X.X.X.X.X.X.",
"X.X.X.X.X.X.E 7 w F X.X.X.X.X.X.",
"X.X.X.X.Q ; : 0 g p b / X.X.X.X.",
"X.X.X.=   r 5 9 g k n M R X.X.X.",
"X.X.& X + t y 8 d a m B H U X.X.",
"X.X.* O # 3 ' S A ( x B K T X.X.",
"X.X.* O @ 1 ..| ~ { l B L T X.X.",
"X.X.* O + 4 [ `  .) z B L T X.X.",
"X.X.* O + 4 } 9 _ ] v N L Y X.X.",
"X.X.% o # 2 W e s ! G C J I X.X.",
"X.X.X.$ . < > 9 f i Z V P X.X.X.",
"X.X.X.X.h - , 0 g j c ^ X.X.X.X.",
"X.X.X.X.X.X.u 6 q D X.X.X.X.X.X.",
"X.X.X.X.X.X.X.X.X.X.X.X.X.X.X.X.",
"X.X.X.X.X.X.X.X.X.X.X.X.X.X.X.X."
};
